<?xml version="1.0" standalone="no"?>
<!DOCTYPE svg PUBLIC "-//W3C//DTD SVG 20010904//EN"
 "http://www.w3.org/TR/2001/REC-SVG-20010904/DTD/svg10.dtd">
<svg version="1.0" xmlns="http://www.w3.org/2000/svg"
 width="164.000000pt" height="162.000000pt" viewBox="0 0 164.000000 162.000000"
 preserveAspectRatio="xMidYMid meet">

<g transform="translate(0.000000,162.000000) scale(0.100000,-0.100000)"
fill="#000000" stroke="none">
<path d="M0 1023 l0 -598 26 55 c15 30 35 64 45 75 10 11 39 61 65 110 25 50
54 101 64 115 35 53 42 85 31 142 -7 29 -15 59 -20 67 -5 7 -6 21 -4 31 4 15
8 16 29 6 13 -6 24 -18 24 -27 0 -30 24 -49 65 -51 22 0 49 -7 60 -15 23 -15
95 -18 95 -3 0 6 24 21 53 34 28 14 69 36 90 50 21 14 48 26 59 26 12 0 35 12
51 28 l28 27 21 -27 c22 -31 49 -36 68 -13 7 8 21 15 31 15 11 0 28 9 40 21
18 18 28 20 72 14 29 -4 65 -14 81 -22 15 -8 39 -17 51 -19 25 -4 71 27 80 55
6 21 59 33 75 17 5 -5 10 -17 10 -27 0 -20 48 -21 68 -1 8 7 19 9 25 5 7 -4 4
-9 -9 -15 -14 -5 -10 -7 16 -5 28 2 35 -2 34 -15 -1 -10 2 -16 6 -13 11 7 40
-5 40 -17 0 -5 10 -18 22 -28 l22 -17 -22 -12 c-13 -7 -20 -16 -17 -22 4 -5 0
-9 -8 -9 -23 0 -27 -25 -10 -51 9 -12 12 -19 6 -16 -6 4 -13 0 -17 -8 -3 -8
-16 -15 -30 -15 -18 0 -27 -8 -34 -29 -6 -16 -7 -33 -4 -37 4 -4 2 -4 -5 0 -7
4 -10 14 -7 24 5 16 5 16 -9 0 -8 -10 -16 -16 -19 -13 -2 3 -20 -41 -39 -97
-19 -56 -39 -106 -45 -112 -25 -25 -39 -71 -50 -164 -3 -28 -22 -52 -40 -52
-7 0 -15 -9 -19 -19 -7 -24 -27 -32 -85 -36 -25 -1 -53 -6 -62 -10 -14 -5 -18
-2 -18 12 0 10 4 23 9 28 5 6 20 32 34 59 20 37 24 54 16 68 -15 28 -38 22
-60 -17 -24 -40 -44 -49 -119 -54 -19 -1 -18 -4 10 -31 54 -52 37 -91 -51
-119 -20 -7 -45 -23 -55 -36 -17 -23 -20 -23 -41 -10 -24 16 -64 8 -79 -16 -4
-7 -3 -10 4 -5 13 8 70 -51 78 -81 4 -13 10 -21 14 -18 4 3 11 -2 14 -11 5
-13 9 -14 20 -5 8 7 16 8 18 2 1 -5 12 -11 23 -13 11 -1 27 -13 36 -26 8 -12
19 -19 22 -15 4 3 7 -1 7 -9 0 -9 8 -18 19 -21 10 -2 181 -5 380 -6 l361 -2 0
810 0 811 -181 0 c-174 0 -182 -1 -200 -22 -11 -11 -19 -18 -19 -14 0 4 -10 2
-21 -5 -20 -10 -21 -9 -17 15 l5 26 -603 0 -604 0 0 -597z m1187 523 c-3 -29
-1 -46 7 -49 7 -3 13 -24 14 -47 2 -27 -1 -39 -8 -35 -6 3 -10 -3 -10 -15 0
-12 4 -18 11 -15 15 10 -40 -91 -58 -107 -13 -10 -17 -10 -20 0 -3 6 -8 10
-12 7 -5 -2 -14 7 -21 20 -7 13 -26 29 -41 34 -16 5 -29 12 -29 14 0 15 42 86
55 90 8 4 15 11 15 17 0 6 17 28 39 49 21 21 42 48 46 59 11 36 17 25 12 -22z
m-915 -161 c35 -14 72 -33 83 -41 20 -15 20 -15 -1 -32 -11 -10 -19 -23 -16
-30 2 -6 -2 -12 -8 -12 -7 0 -10 -7 -6 -15 3 -9 0 -15 -8 -15 -8 0 -13 -8 -12
-17 1 -13 -9 -18 -40 -21 l-41 -3 1 48 c1 26 -2 51 -7 54 -5 3 -9 20 -9 37 -1
17 -7 33 -15 36 -9 4 -12 1 -7 -7 5 -9 4 -9 -6 0 -7 6 -19 9 -26 6 -9 -3 -14
2 -14 16 0 30 52 28 132 -4z m949 -18 c-10 -9 -11 -8 -5 6 3 10 9 15 12 12 3
-3 0 -11 -7 -18z m-225 -30 c3 -3 -9 -21 -26 -41 -27 -30 -39 -36 -74 -36 -22
0 -66 -7 -96 -16 -66 -18 -226 -29 -234 -15 -10 15 83 63 149 77 33 7 78 20
100 28 37 15 167 17 181 3z m550 -414 c-3 -4 -6 -1 -6 6 0 7 -4 9 -10 6 -6 -4
-7 1 -3 11 6 15 7 15 15 -1 6 -9 7 -19 4 -22z"/>
<path d="M1039 886 c-49 -17 -93 -52 -78 -62 8 -5 7 -10 -5 -16 -14 -8 -15
-12 -4 -25 7 -9 13 -19 13 -22 0 -3 3 -5 6 -4 4 1 12 -18 19 -42 14 -50 21
-53 96 -33 71 19 115 63 124 123 10 64 6 72 -38 85 -49 13 -89 12 -133 -4z"/>
<path d="M570 792 c-45 -22 -57 -56 -36 -105 11 -27 26 -42 53 -53 42 -18 123
-15 148 6 24 20 18 63 -15 108 -47 66 -85 77 -150 44z"/>
</g>
</svg>
